<?xml version="1.0" encoding="UTF-8"?>
<svg width="16px" height="16px" viewBox="0 0 16 16" version="1.1" xmlns="http://www.w3.org/2000/svg" xmlns:xlink="http://www.w3.org/1999/xlink">
    <!-- Generator: Sketch 50 (54983) - http://www.bohemiancoding.com/sketch -->
    <title>Combined Shape</title>
    <desc>Created with Sketch.</desc>
    <defs></defs>
    <g id="Page-1" stroke="none" stroke-width="1" fill="none" fill-rule="evenodd">
        <g id="Group" fill="#000000">
            <path d="M8,16 C3.581722,16 0,12.418278 0,8 C0,3.581722 3.581722,0 8,0 C12.418278,0 16,3.581722 16,8 C16,12.418278 12.418278,16 8,16 Z M5.72,11 L7.74,11 C8.206669,11 8.63833135,10.9366673 9.035,10.81 C9.43166865,10.6833327 9.77499855,10.486668 10.065,10.22 C10.3550015,9.953332 10.5799992,9.6133354 10.74,9.2 C10.9000008,8.7866646 10.98,8.2933362 10.98,7.72 C10.98,7.1466638 10.8983342,6.6566687 10.735,6.25 C10.5716659,5.8433313 10.3433348,5.5100013 10.05,5.25 C9.7566652,4.9899987 9.40500205,4.8000006 8.995,4.68 C8.58499795,4.5599994 8.1333358,4.5 7.64,4.5 L5.72,4.5 L5.72,11 Z M7.44,9.62 L7.44,5.88 L7.54,5.88 C7.7733345,5.88 7.9933323,5.90499975 8.2,5.955 C8.4066677,6.00500025 8.58499925,6.096666 8.735,6.23 C8.88500075,6.363334 9.0033329,6.5499988 9.09,6.79 C9.1766671,7.0300012 9.22,7.3399981 9.22,7.72 C9.22,8.1000019 9.1766671,8.4133321 9.09,8.66 C9.0033329,8.9066679 8.88500075,9.0999993 8.735,9.24 C8.58499925,9.3800007 8.4066677,9.47833305 8.2,9.535 C7.9933323,9.59166695 7.7733345,9.62 7.54,9.62 L7.44,9.62 Z" id="Combined-Shape"></path>
        </g>
    </g>
</svg>